# xmcd CD database file
#
# Track frame offsets:
#	150
#	11700
#	23200
#	38950
#	53600
#	69400
#	80900
#	91450
#	100625
#	118537
#	131850
#	148525
#	168612
#	180262
#	192525
#	204925
#	216700
#
# Disc length: 3136 seconds
#
# Revision: 0
# Processed by: cddbd v1.5.1PL0 Copyright (c) Steve Scherf et al.
# Submitted via: CDex 1.50
#
DISCID=f60c3e11
DTITLE=宗次郎 - こころのうた・二 優
DYEAR=1991
DGENRE=New Age
TTITLE0=花の街
TTITLE1=からたちの花
TTITLE2=夏の思い出
TTITLE3=城ケ島の雨
TTITLE4=浜辺の歌
TTITLE5=この道
TTITLE6=花かげ
TTITLE7=とんび
TTITLE8=叱られて
TTITLE9=椰子の実
TTITLE10=浜千鳥
TTITLE11=荒城の月
TTITLE12=赤とんぼ
TTITLE13=小さい秋みつけた
TTITLE14=もずが枯木で
TTITLE15=ペチカ
TTITLE16=かあさんの歌
EXTD=YEAR: 1991
EXTT0=
EXTT1=
EXTT2=
EXTT3=
EXTT4=
EXTT5=
EXTT6=
EXTT7=
EXTT8=
EXTT9=
EXTT10=
EXTT11=
EXTT12=
EXTT13=
EXTT14=
EXTT15=
EXTT16=
PLAYORDER=
